<?xml version="1.0" encoding="UTF-8"?>
<mxfile host="app.diagrams.net" agent="Mozilla/5.0 (Windows NT 10.0; Win64; x64; rv:132.0) Gecko/20100101 Firefox/132.0" version="24.8.4">
  <diagram name="PÃ¡gina-1" id="-3f-li-FDchyKuZTHndK">
    <mxGraphModel dx="1279" dy="505" grid="1" gridSize="10" guides="1" tooltips="1" connect="1" arrows="1" fold="1" page="1" pageScale="1" pageWidth="827" pageHeight="1169" math="0" shadow="0">
      <root>
        <mxCell id="0" />
        <mxCell id="1" parent="0" />
        <mxCell id="fnlMWGeFrQO07YBZmBXY-35" value="" style="rounded=0;whiteSpace=wrap;html=1;" parent="1" vertex="1">
          <mxGeometry x="320" y="40" width="200" height="340" as="geometry" />
        </mxCell>
        <mxCell id="fnlMWGeFrQO07YBZmBXY-1" value="User" style="shape=umlActor;verticalLabelPosition=bottom;verticalAlign=top;html=1;outlineConnect=0;" parent="1" vertex="1">
          <mxGeometry x="190" y="160" width="30" height="60" as="geometry" />
        </mxCell>
        <mxCell id="fnlMWGeFrQO07YBZmBXY-2" value="Game Server" style="shape=umlActor;verticalLabelPosition=bottom;verticalAlign=top;html=1;outlineConnect=0;" parent="1" vertex="1">
          <mxGeometry x="650" y="160" width="30" height="60" as="geometry" />
        </mxCell>
        <mxCell id="fnlMWGeFrQO07YBZmBXY-5" value="&lt;b&gt;&lt;font style=&quot;font-size: 14px;&quot;&gt;World Edit&lt;/font&gt;&lt;/b&gt;" style="text;html=1;align=center;verticalAlign=middle;whiteSpace=wrap;rounded=0;" parent="1" vertex="1">
          <mxGeometry x="364" y="25" width="100" height="50" as="geometry" />
        </mxCell>
        <mxCell id="fnlMWGeFrQO07YBZmBXY-7" value="Naturalize Region" style="ellipse;whiteSpace=wrap;html=1;" parent="1" vertex="1">
          <mxGeometry x="376" y="200" width="76" height="40" as="geometry" />
        </mxCell>
        <mxCell id="fnlMWGeFrQO07YBZmBXY-9" value="Generate Sphere" style="ellipse;whiteSpace=wrap;html=1;" parent="1" vertex="1">
          <mxGeometry x="330" y="330" width="76" height="40" as="geometry" />
        </mxCell>
        <mxCell id="fnlMWGeFrQO07YBZmBXY-10" value="Generate Forest" style="ellipse;whiteSpace=wrap;html=1;" parent="1" vertex="1">
          <mxGeometry x="420" y="330" width="76" height="40" as="geometry" />
        </mxCell>
        <mxCell id="fnlMWGeFrQO07YBZmBXY-11" value="" style="endArrow=none;html=1;rounded=0;" parent="1" edge="1">
          <mxGeometry width="50" height="50" relative="1" as="geometry">
            <mxPoint x="240" y="180" as="sourcePoint" />
            <mxPoint x="370" y="100" as="targetPoint" />
          </mxGeometry>
        </mxCell>
        <mxCell id="fnlMWGeFrQO07YBZmBXY-13" value="" style="endArrow=none;html=1;rounded=0;" parent="1" edge="1">
          <mxGeometry width="50" height="50" relative="1" as="geometry">
            <mxPoint x="240" y="200" as="sourcePoint" />
            <mxPoint x="370" y="230" as="targetPoint" />
          </mxGeometry>
        </mxCell>
        <mxCell id="fnlMWGeFrQO07YBZmBXY-15" value="" style="endArrow=none;html=1;rounded=0;" parent="1" edge="1">
          <mxGeometry width="50" height="50" relative="1" as="geometry">
            <mxPoint x="240" y="220" as="sourcePoint" />
            <mxPoint x="370" y="270" as="targetPoint" />
          </mxGeometry>
        </mxCell>
        <mxCell id="fnlMWGeFrQO07YBZmBXY-16" value="" style="endArrow=none;html=1;rounded=0;" parent="1" edge="1">
          <mxGeometry width="50" height="50" relative="1" as="geometry">
            <mxPoint x="630" y="180" as="sourcePoint" />
            <mxPoint x="460" y="90" as="targetPoint" />
          </mxGeometry>
        </mxCell>
        <mxCell id="fnlMWGeFrQO07YBZmBXY-18" value="" style="endArrow=none;html=1;rounded=0;" parent="1" edge="1">
          <mxGeometry width="50" height="50" relative="1" as="geometry">
            <mxPoint x="460" y="220" as="sourcePoint" />
            <mxPoint x="630" y="200" as="targetPoint" />
          </mxGeometry>
        </mxCell>
        <mxCell id="fnlMWGeFrQO07YBZmBXY-20" value="" style="endArrow=none;html=1;rounded=0;" parent="1" edge="1">
          <mxGeometry width="50" height="50" relative="1" as="geometry">
            <mxPoint x="460" y="270" as="sourcePoint" />
            <mxPoint x="630" y="220" as="targetPoint" />
          </mxGeometry>
        </mxCell>
        <mxCell id="fnlMWGeFrQO07YBZmBXY-25" value="Generate " style="ellipse;whiteSpace=wrap;html=1;" parent="1" vertex="1">
          <mxGeometry x="376" y="250" width="76" height="40" as="geometry" />
        </mxCell>
        <mxCell id="fnlMWGeFrQO07YBZmBXY-27" value="&lt;div&gt;&lt;br&gt;&lt;/div&gt;&lt;div&gt;&lt;br&gt;&lt;/div&gt;" style="endArrow=block;endSize=16;endFill=0;html=1;rounded=0;entryX=0.321;entryY=0.997;entryDx=0;entryDy=0;entryPerimeter=0;" parent="1" source="fnlMWGeFrQO07YBZmBXY-9" target="fnlMWGeFrQO07YBZmBXY-25" edge="1">
          <mxGeometry width="160" relative="1" as="geometry">
            <mxPoint x="386" y="330" as="sourcePoint" />
            <mxPoint x="414" y="290" as="targetPoint" />
          </mxGeometry>
        </mxCell>
        <mxCell id="fnlMWGeFrQO07YBZmBXY-28" value="&lt;div&gt;&lt;br&gt;&lt;/div&gt;&lt;div&gt;&lt;br&gt;&lt;/div&gt;" style="endArrow=block;endSize=16;endFill=0;html=1;rounded=0;entryX=0.773;entryY=1.012;entryDx=0;entryDy=0;exitX=0.5;exitY=0;exitDx=0;exitDy=0;entryPerimeter=0;" parent="1" source="fnlMWGeFrQO07YBZmBXY-10" target="fnlMWGeFrQO07YBZmBXY-25" edge="1">
          <mxGeometry width="160" relative="1" as="geometry">
            <mxPoint x="378" y="340" as="sourcePoint" />
            <mxPoint x="424" y="300" as="targetPoint" />
          </mxGeometry>
        </mxCell>
        <mxCell id="fnlMWGeFrQO07YBZmBXY-29" value="Set Pattern" style="ellipse;whiteSpace=wrap;html=1;" parent="1" vertex="1">
          <mxGeometry x="331" y="150" width="76" height="40" as="geometry" />
        </mxCell>
        <mxCell id="fnlMWGeFrQO07YBZmBXY-30" value="Set Biome" style="ellipse;whiteSpace=wrap;html=1;" parent="1" vertex="1">
          <mxGeometry x="430" y="150" width="76" height="40" as="geometry" />
        </mxCell>
        <mxCell id="fnlMWGeFrQO07YBZmBXY-31" value="Set" style="ellipse;whiteSpace=wrap;html=1;" parent="1" vertex="1">
          <mxGeometry x="377" y="70" width="76" height="40" as="geometry" />
        </mxCell>
        <mxCell id="fnlMWGeFrQO07YBZmBXY-32" value="&lt;div&gt;&lt;br&gt;&lt;/div&gt;&lt;div&gt;&lt;br&gt;&lt;/div&gt;" style="endArrow=block;endSize=16;endFill=0;html=1;rounded=0;entryX=0.321;entryY=0.997;entryDx=0;entryDy=0;entryPerimeter=0;" parent="1" source="fnlMWGeFrQO07YBZmBXY-29" target="fnlMWGeFrQO07YBZmBXY-31" edge="1">
          <mxGeometry width="160" relative="1" as="geometry">
            <mxPoint x="387" y="150" as="sourcePoint" />
            <mxPoint x="415" y="110" as="targetPoint" />
          </mxGeometry>
        </mxCell>
        <mxCell id="fnlMWGeFrQO07YBZmBXY-33" value="&lt;div&gt;&lt;br&gt;&lt;/div&gt;&lt;div&gt;&lt;br&gt;&lt;/div&gt;" style="endArrow=block;endSize=16;endFill=0;html=1;rounded=0;entryX=0.773;entryY=1.012;entryDx=0;entryDy=0;exitX=0.5;exitY=0;exitDx=0;exitDy=0;entryPerimeter=0;" parent="1" source="fnlMWGeFrQO07YBZmBXY-30" target="fnlMWGeFrQO07YBZmBXY-31" edge="1">
          <mxGeometry width="160" relative="1" as="geometry">
            <mxPoint x="379" y="160" as="sourcePoint" />
            <mxPoint x="425" y="120" as="targetPoint" />
          </mxGeometry>
        </mxCell>
      </root>
    </mxGraphModel>
  </diagram>
</mxfile>
